<svg version="1.2" xmlns="http://www.w3.org/2000/svg" viewBox="0 0 409 302" width="409" height="302"><style>.a{fill:#1d1d1b}</style><path fill-rule="evenodd" class="a" d="m-205.2 402.7c7.8 0 12.5 2.4 12.5 8.8 0 4.4-2.5 7.2-7.3 8.3v0.1c4.6 0.7 8.6 3.6 8.6 9.6 0 2.8-0.8 5.4-2.8 7.1-2 1.8-5.4 2.9-11 2.9h-16.2v-2c3.5-0.2 3.9-0.4 3.9-3.2v-26.4c0-2.7-0.4-3-3.9-3.2v-2zm-4.5 16.1h2.4c4.7 0 6.6-2.9 6.6-6.8 0-4-1.7-6.8-6.2-6.8-1.9 0-2.8 0.2-2.8 1.9zm0 14.8c0 2.6 1.1 3.4 3.5 3.4 3.5 0 6.2-1.8 6.2-7.5 0-4.4-2.3-8.2-7.2-8.2h-2.5z"/><path fill-rule="evenodd" class="a" d="m-160.2 432.7c-1.6 4.5-4.8 7.3-10.7 7.3q-0.1 0-0.1 0c-9 0-11.9-6.1-11.9-12.9 0-7.1 3.3-12.9 12.1-12.9 9.5 0 11 6.3 11 10.5 0 1.6-0.9 2.1-2.6 2.1h-12.7c0 5.3 1.7 9.4 6.6 9.4 3 0 5.1-1.6 6.6-4.5zm-8.9-8.4c1.2 0 1.6-0.3 1.6-1.7 0-2.3-0.5-6.2-3.5-6.2-3.2 0-4.2 4.3-4.2 7.9z"/><path class="a" d="m-142.4 417.2v14.4c0 3.3 1.3 4.7 3.1 4.7 1.1 0 2.2-0.2 2.8-0.5l0.6 1.5c-2.8 1.8-5.8 2.7-7.8 2.7-2.8 0-6.1-1.9-6.1-6.4v-16.4h-2.9v-2.4h3.1c2.4-2.2 3.7-5.3 4.4-9.6h2.8v9.6h5.1v2.4z"/><path class="a" d="m-118.7 435.1c0 2.1 0.4 2.2 4.2 2.5v1.9h-14.8v-1.9c2.8-0.2 3.2-0.4 3.2-2.5v-14.8c0-2-0.4-2.5-1.2-2.6l-1.7-0.3v-1.8l9.6-1.4 0.5 4.4c2.9-3.1 4.5-4.4 6.5-4.4 2.2 0 3.5 1.3 3.5 3.5 0 1.1-0.3 2.1-0.8 2.8-0.5 0.9-1.5 1.4-2.5 1.4-0.9 0-1.6-0.4-2.3-0.8-1-0.7-1.7-1.1-2.5-1.1-1.2 0-1.7 1.2-1.7 3.7z"/><path fill-rule="evenodd" class="a" d="m-79.6 432.7c-1.6 4.5-4.8 7.3-10.7 7.3q-0.1 0-0.1 0c-9.1 0-11.9-6.1-11.9-12.9 0-7.1 3.2-12.9 12.1-12.9 9.5 0 11 6.3 11 10.5 0 1.6-0.9 2.1-2.7 2.1h-12.6c0 5.3 1.7 9.4 6.6 9.4 2.9 0 5.1-1.6 6.5-4.5zm-8.8-8.4c1.1 0 1.5-0.3 1.5-1.7 0-2.3-0.5-6.2-3.4-6.2-3.2 0-4.2 4.3-4.2 7.9z"/><path class="a" d="m-53 436.7c-1.9 1.1-4.5 3.3-8.7 3.3-3.5 0-7.1-1.6-7.1-7.5v-12.2c0-2-0.4-2.5-1.2-2.6l-1.7-0.3v-1.8l10-1.4 0.3 0.2v16.2c0 3.9 1.6 5.5 4.1 5.5 2.2 0 3.5-1.2 3.9-2.4 0.3-0.7 0.4-2 0.4-2.8v-10.6c0-2-0.4-2.5-1.2-2.6l-1.7-0.3v-1.8l10-1.4 0.3 0.2v20.7c0 2.1 0.4 2.3 3.2 2.5v1.9h-10.2z"/><path class="a" d="m-17.1 436.7c-1.9 1.1-4.5 3.3-8.6 3.3-3.6 0-7.2-1.6-7.2-7.5v-12.2c0-2-0.4-2.5-1.2-2.6l-1.7-0.3v-1.8l10-1.4 0.3 0.2v16.2c0 3.9 1.6 5.5 4.2 5.5 2.1 0 3.4-1.2 3.8-2.4 0.3-0.7 0.4-2 0.4-2.8v-10.6c0-2-0.4-2.5-1.2-2.6l-1.7-0.3v-1.8l10-1.4 0.4 0.2v20.7c0 2.1 0.4 2.3 3.2 2.5v1.9h-10.3z"/><path class="a" d="m26.9 435.1c0 2.1 0.3 2.3 3.1 2.5v1.9h-13.2v-1.9l1-0.1c1.1-0.2 1.6-0.4 1.6-2v-12.8c-0.1-3.1-1.3-4.7-3.9-4.7-2 0-3.4 1.2-4 2.5-0.4 0.7-0.5 1.9-0.5 3v12c0 1.6 0.5 1.8 1.6 2l1 0.1v1.9h-13.2v-1.9c2.8-0.2 3.2-0.4 3.2-2.5v-14.8c0-2-0.4-2.5-1.2-2.6l-1.7-0.3v-1.8l9.6-1.4 0.7 3.4c3.2-1.9 5.7-3.4 8.4-3.4 5.1 0 7.4 3 7.5 7.7z"/><path fill-rule="evenodd" class="a" d="m52.3 435.1c5.1 0 9.7 2.7 9.7 7.4q0 0.1 0 0.2c0 7.1-7 9.6-12.8 9.6-7 0-12.1-2.5-12.1-7.4 0-3.4 3.7-4.3 5.7-4.8-2.1-0.5-4.5-2.6-4.5-4.8 0-2 2.1-4.5 5.3-5.2v-0.1c-3-0.6-6-3.1-6-7.3 0-3.9 2.6-8.5 11.4-8.5 2.7 0 5.4 0.7 7 1.6l6.2-2.2 0.5 0.6-1 3.8-3.2 0.6c0.6 0.8 1.1 2.4 1.1 3.9 0 6-5.1 8.2-10.9 8.2-0.6 0-1.3 0-2.3-0.1-0.6 0.2-2 1-2 2.1 0 1 1 2.4 3.3 2.4zm-7.3 6.5c-0.6 0.5-1.2 1.3-1.2 2.8 0 3.6 3 5.6 6.2 5.6 3.3 0 6.1-1.5 6.1-5.1 0-3.1-2.6-4.1-6.8-4.1-2.1 0-3.6 0.4-4.3 0.8zm3.9-13.2c2.3 0 3.7-2.3 3.7-5.9 0-4.2-1.7-6.1-3.6-6.1-2 0-3.7 1.9-3.7 6.2 0 3.4 1.5 5.8 3.6 5.8z"/><path class="a" d="m70.5 430.1h1.9c1.3 4.2 3.9 7.7 7.2 7.7 2.1 0 3.3-1.2 3.3-3.1 0-2.4-2.4-3.9-4.9-4.8-4.3-1.7-7.2-4.1-7.2-7.7 0-5.1 3.7-8 9.7-8 2.5 0 5.4 0.5 7.4 1.7v6.8h-1.8c-1-3.9-3.1-6.3-5.6-6.3-2 0-3.1 1.5-3.1 3 0 2.1 2.2 3.3 5 4.3 4.5 1.8 7.1 3.8 7.1 8.2 0 5.4-4.1 8.1-10.1 8.1-2.7 0-6.4-0.5-8.2-2.3z"/><path fill-rule="evenodd" class="a" d="m122.8 435.1c0 2.1 0.4 2.3 3.2 2.5v1.9h-10.6v-2.6c-2.6 2.2-5.3 3.1-7.1 3.1-6.2 0-9.8-5.1-9.8-12.4 0-4.6 1.3-8 3.6-10.2 2.3-2.2 5.5-3.2 9.2-3.2 1.7 0 3 0.1 4.1 0.6v-10.6c0-2-0.4-2.5-1.1-2.7l-1.7-0.2v-1.9l9.9-1.3 0.3 0.2zm-7.4-13.6c0-1.1 0-2.2-0.4-3-0.4-1.1-1.4-2-3.3-2-2.7 0-5.5 2.7-5.5 10.1 0 6.4 2.2 9.6 5.4 9.6 3.1 0 3.8-2.4 3.8-4.4z"/><path class="a" d="m136.1 420.3c0-2-0.4-2.5-1.2-2.6l-1.7-0.3v-1.8l10-1.4 0.3 0.2v20.7c0 2.1 0.4 2.3 3.2 2.5v1.9h-13.8v-1.9c2.8-0.2 3.2-0.4 3.2-2.5zm-1-12.7c0-2.4 1.7-4.4 4.4-4.4 2.8 0 4.5 2 4.5 4.4 0 2.4-1.8 4.4-4.5 4.4-2.7 0-4.4-2-4.4-4.4z"/><path fill-rule="evenodd" class="a" d="m177.1 432.7c-1.6 4.5-4.8 7.3-10.7 7.3q-0.1 0-0.1 0c-9.1 0-11.9-6.1-11.9-12.9 0-7.1 3.3-12.9 12.1-12.9 9.5 0 11 6.3 11 10.5 0 1.6-0.9 2.1-2.6 2.1h-12.7c0 5.3 1.7 9.4 6.6 9.4 3 0 5.1-1.6 6.6-4.5zm-8.9-8.4c1.2 0 1.6-0.3 1.6-1.7 0-2.3-0.6-6.2-3.5-6.2-3.2 0-4.2 4.3-4.2 7.9z"/><path class="a" d="m211.7 435.1c0 2.1 0.4 2.3 3.2 2.5v1.9h-13.2v-1.9l1-0.1c1-0.2 1.6-0.4 1.6-2v-12.8c-0.1-3.1-1.4-4.7-3.9-4.7-2 0-3.4 1.2-4 2.5-0.4 0.7-0.5 1.9-0.5 3v12c0 1.6 0.5 1.8 1.6 2l1 0.1v1.9h-13.2v-1.9c2.8-0.2 3.2-0.4 3.2-2.5v-14.8c0-2-0.4-2.5-1.2-2.6l-1.7-0.3v-1.8l9.6-1.4 0.7 3.4c3.2-1.9 5.7-3.4 8.4-3.4 5 0 7.4 3 7.4 7.7z"/><path class="a" d="m222.8 430.1h1.8c1.3 4.2 3.9 7.7 7.2 7.7 2.1 0 3.4-1.2 3.4-3.1 0-2.4-2.4-3.9-5-4.8-4.3-1.7-7.2-4.1-7.2-7.7 0-5.1 3.8-8 9.8-8 2.5 0 5.3 0.5 7.3 1.7v6.8h-1.8c-0.9-3.9-3-6.3-5.5-6.3-2 0-3.1 1.5-3.1 3 0 2.1 2.1 3.3 4.9 4.3 4.5 1.8 7.2 3.8 7.2 8.2 0 5.4-4.1 8.1-10.1 8.1-2.8 0-6.5-0.5-8.3-2.3z"/><path class="a" d="m260 417.2v14.4c0 3.3 1.2 4.7 3.1 4.7 1.1 0 2.1-0.2 2.8-0.5l0.5 1.5c-2.7 1.8-5.7 2.7-7.7 2.7-2.8 0-6.1-1.9-6.1-6.4v-16.4h-2.9v-2.4h3.1c2.3-2.2 3.7-5.3 4.3-9.6h2.9v9.6h5.1v2.4z"/><path class="a" d="m299.4 407.9c0-2.7-0.4-3-3.8-3.2v-2h15.6v2c-3.5 0.2-3.9 0.5-3.9 3.2v12.5l5.2-5.8c2.5-3.1 4.2-6 5.5-7.8 0.3-0.3 0.5-0.8 0.5-1.1 0-0.4-0.2-0.7-0.7-0.7l-2-0.4v-1.9h13.3v1.9c-2.9 0.3-3.9 0.8-5.6 2.2-3.5 2.8-6.1 6.1-9.9 10.4 2.7 4.9 7.4 12.3 11.6 17.4 1.4 1.7 2.5 2.7 3.5 3l0.6 0.2v1.9l-3.4-0.1c-6.2-0.1-8.5-1.5-11.8-6.4-2.4-3.7-4.1-6.5-6.7-11.7h-0.1v12.8c0 2.8 0.4 3 3.9 3.2v2h-15.6v-2c3.4-0.2 3.8-0.4 3.8-3.2z"/><path fill-rule="evenodd" class="a" d="m357.4 432.7c-1.7 4.5-4.8 7.3-10.7 7.3q-0.1 0-0.2 0c-9 0-11.8-6.1-11.8-12.9 0-7.1 3.2-12.9 12.1-12.9 9.5 0 11 6.3 11 10.5 0 1.6-0.9 2.1-2.7 2.1h-12.7c0 5.3 1.8 9.4 6.7 9.4 2.9 0 5-1.6 6.5-4.5zm-8.8-8.4c1.1 0 1.5-0.3 1.5-1.7 0-2.3-0.5-6.2-3.5-6.2-3.2 0-4.1 4.3-4.1 7.9z"/><path class="a" d="m375.2 417.2v14.4c0 3.3 1.2 4.7 3.1 4.7 1.1 0 2.1-0.2 2.8-0.5l0.5 1.5c-2.7 1.8-5.8 2.7-7.8 2.7-2.7 0-6.1-1.9-6.1-6.4v-16.4h-2.8v-2.4h3.1c2.3-2.2 3.7-5.3 4.3-9.6h2.9v9.6h5v2.4z"/><path class="a" d="m398.4 417.2v14.4c0 3.3 1.3 4.7 3.1 4.7 1.1 0 2.2-0.2 2.8-0.5l0.6 1.5c-2.8 1.8-5.8 2.7-7.8 2.7-2.8 0-6.1-1.9-6.1-6.4v-16.4h-2.9v-2.4h3.1c2.3-2.2 3.7-5.3 4.3-9.6h2.9v9.6h5.1v2.4z"/><path fill-rule="evenodd" class="a" d="m433.7 432.7c-1.7 4.5-4.9 7.3-10.7 7.3q-0.1 0-0.2 0c-9 0-11.8-6.1-11.8-12.9 0-7.1 3.2-12.9 12.1-12.9 9.4 0 11 6.3 11 10.5 0 1.6-0.9 2.1-2.7 2.1h-12.7c0 5.3 1.7 9.4 6.7 9.4 2.9 0 5-1.6 6.5-4.5zm-8.8-8.4c1.1 0 1.5-0.3 1.5-1.7 0-2.3-0.5-6.2-3.5-6.2-3.2 0-4.1 4.3-4.1 7.9z"/><path class="a" d="m468.3 435.1c0 2.1 0.3 2.3 3.1 2.5v1.9h-13.2v-1.9l1.1-0.1c1-0.2 1.6-0.4 1.6-2v-12.8c-0.1-3.1-1.4-4.7-3.9-4.7-2.1 0-3.4 1.2-4.1 2.5-0.3 0.7-0.4 1.9-0.4 3v12c0 1.6 0.5 1.8 1.5 2l1 0.1v1.9h-13.1v-1.9c2.8-0.2 3.2-0.4 3.2-2.5v-14.8c0-2-0.4-2.5-1.2-2.6l-1.8-0.3v-1.8l9.7-1.4 0.7 3.4c3.2-1.9 5.7-3.4 8.4-3.4 5 0 7.3 3 7.4 7.7z"/><path class="a" d="m481.4 420.3c0-2-0.4-2.5-1.2-2.6l-1.7-0.3v-1.8l9.9-1.4 0.4 0.2v20.7c0 2.1 0.4 2.3 3.2 2.5v1.9h-13.8v-1.9c2.8-0.2 3.2-0.4 3.2-2.5zm-1.1-12.7c0-2.4 1.8-4.4 4.5-4.4 2.8 0 4.5 2 4.5 4.4 0 2.4-1.8 4.4-4.5 4.4-2.7 0-4.5-2-4.5-4.4z"/><path class="a" d="m498.4 439.5v-1.8c2.8-0.3 3.2-0.5 3.2-2.5v-20.4c0-3.5 0.5-6.6 2.4-8.8 1.9-2.3 5.5-3.9 9.9-3.9 10.1 0 11.4 5.4 11.4 8.4 0 1.5-0.3 2.6-1.2 3.7-3.2 0.4-5 2.1-5 4.4 0 2.2 2.8 4.3 3.8 5.1 2.4 1.8 5.9 4.3 5.9 8.6 0 4.9-3.3 7.7-9.1 7.7-3.8 0-6.5-1.3-6.5-3.4 0-1.4 1.4-2.6 2.5-2.6 0.8 0 1.2 0.5 1.5 1.1 1.2 1.8 2.3 2.7 3.3 2.7 1 0 2.1-0.7 2.1-2.6 0-2-1.4-3.7-5-6.1-3.7-2.4-5.2-5.3-5.2-7.9 0-3.1 1.9-6 5-6.8 0.9-1.3 1-2.9 1-4 0-3.4-1.7-6.1-4.5-6.1-3 0-5 3.3-5 9.4v21.5c0 2 0.4 2.2 3.2 2.5v1.8z"/><path class="a" d="m590.3 427.5c-0.1 9.2-5 12.7-14.1 12.7-9.9 0-14.1-3.5-14.1-12.7v-19.6c0-2.7-0.4-3-3.8-3.2v-2h15.3v2c-3.3 0.2-3.7 0.5-3.7 3.2v20.4c0 6 1.9 9.6 6.3 9.6 4.5 0 6.3-3.6 6.3-9.6v-20.4c0-2.7-0.4-3-3.8-3.2v-2h15.4v2c-3.4 0.2-3.8 0.5-3.8 3.2z"/><path class="a" d="m630.5 413.9h-1.8c-1.4-4.5-3.7-9.5-9.2-9.5-8.6 0-9.8 10.8-9.8 16.3 0 3.8 0.5 17.2 9.4 17.2 3.4 0 4-0.6 4-2.4v-7.5c0-2.7-0.3-2.9-4.1-3.2v-2h14.8v2c-2.4 0.3-2.8 0.5-2.8 3.1v9.8c-3.4 1.7-8.2 2.5-11.9 2.5-3.3 0-7.8-0.3-11.4-2.9-3.8-2.6-6.7-7.6-6.7-15.9 0-7.4 2.6-19.5 18.3-19.5 3.8 0 8.1 0.6 11.2 2.4z"/><path class="a" d="m199.5 128.7h-38.5v38.5h38.5z"/><path class="a" d="m244.5 128.7h-38.5v38.5h38.5z"/><path class="a" d="m161 211.9h38.5v-38.5h-38.5z"/><path class="a" d="m206 211.9h38.5v-38.5h-38.5z"/><path class="a" d="m316.2 112c1.3-4.2 2.1-7.3 2.1-7.3l-115.5-99-113.5 99.3c0 0 1.4 3.2 2.5 7.7 1.1 4.6 2.1 11 2.1 11l108.9-95.3 111.4 94.9c0 0 0.8-7 2-11.3z"/><path class="a" d="m463.1 285.1c0.4 0 0.8 0 1.2 0-11.3-7.2-28.7-20.5-42.4-42.8-1.5-2.4-5.7-9.4-9.8-19.2-10-23.9-6.2-32.9-12.9-63.3-3.9-17.3-8.2-35.7-21.6-54.9-5.5-8-11.1-13.8-15-17.6q-40.7-38.1-81.4-76.3c-3.9-2.1-8.5-2.2-11.8-0.1-6.1 4-3.3 11.5-3.2 11.9 1.2 4.6 3.3 7.2 5 10.2 23.4 33.5 36.7 52.7 44.3 61.7 6.7 7.8 5.7 3.6 10.1 2.4 17.8-4.8 24 6.4 25.7 12.2 4.7 23 9.1 42.4 10.7 56.7 1.5 13 1.7 17.8 4.3 33.3 2.1 12.2 5.2 23 5.2 23 0 0-3.3 1.1-5.5 1.8-2.1-7.3-4.5-15.4-6-23.4-2.4-12.6-2.8-25.6-4.8-39.1-2.4-16.1-6.1-31.8-8.9-47-0.1-0.6-1.1-7.5-7.2-10.5-0.6-0.3-9.2-3.4-13.9 0.5-3.1 2.7-3.2 5.7-3.6 7.6-3.4 18.6-4.9 34.3-6.1 45.5-4.1 39.7-4.1 59.6 1.6 83 0 0 0.1 0.3 8.3 29.4-37.4-2-78.8-3.2-122.3-3.2-43.2 0-84.3 1.2-121.6 3.2 8.3-29.1 8.4-29.4 8.4-29.4 5.7-23.4 5.7-43.3 1.6-83-1.2-11.2-2.8-26.9-6.1-45.5-0.4-1.9-0.5-4.9-3.6-7.6-4.7-3.9-13.3-0.8-13.9-0.5-6.1 3-7.2 9.9-7.2 10.5-2.8 15.2-6.5 30.9-8.9 47-2 13.5-2.5 26.5-4.8 39.1-1.5 8-3.9 16.1-6 23.4-2.2-0.7-5.6-1.8-5.6-1.8 0 0 3.2-10.8 5.3-23 2.6-15.5 2.8-20.3 4.3-33.3 1.6-14.3 6-33.7 10.7-56.7 1.7-5.8 7.9-17 25.7-12.2 4.3 1.2 3.4 5.4 10.1-2.4 7.6-9 20.8-28.2 44.3-61.7 1.7-3 3.8-5.6 5-10.2 0.1-0.4 2.9-7.9-3.3-11.9-3.3-2.1-7.8-2-11.7 0.1q-40.7 38.2-81.4 76.3c-3.9 3.8-9.5 9.6-15 17.6-13.4 19.2-17.7 37.6-21.6 54.9-6.7 30.4-2.9 39.4-12.9 63.3-4.1 9.8-8.3 16.8-9.8 19.2-13.7 22.3-31.1 35.6-42.4 42.8q0 0 0 0c-12.2 2.5-22.2 5.2-29.8 7.9 69.6-8.4 173.8-13.7 290.2-13.7 116.5 0 220.7 5.3 290.3 13.7-7.7-2.8-17.9-5.5-30.3-7.9z"/><path fill-rule="evenodd" class="a" d="m-227.1 224.8c2.6-8.1 6.1-12.7 11.1-15.2 5-2.4 11.2-2.5 18.7-0.1 22.5 7 19 22.9 16 32.6l-5.8 18.6-2.6-0.8c1.2-4.4 1.1-5-2.4-6.1l-33.6-10.5c-3.4-1.1-3.9-0.7-5.5 3.7l-2.6-0.8zm38.6 19.2c2.2 0.7 3.3-0.2 4.6-4.1 1.9-6.2 1.1-13.7-16.8-19.3-13-4-21.1-1.9-23.7 6.5-1.2 3.9-1.3 5.3 0.3 5.8z"/><path class="a" d="m-200.1 171.9c-2.8-1.3-4.3-4.6-2.7-7.9 1.6-3.3 5.1-4.2 7.9-2.9 2.9 1.4 4.3 4.8 2.7 8-1.5 3.3-5 4.2-7.9 2.8zm15.9 6.1c-2.4-1.2-3.2-1-3.7-0.1l-1.4 1.9-2.1-1 4-12.8 0.5-0.3 24.8 11.9c2.6 1.2 3 0.8 4.8-2.5l2.3 1.1-8 16.6-2.2-1.1c1.4-3.4 1.4-4-1.1-5.2z"/><path fill-rule="evenodd" class="a" d="m-133.7 122.8c3.8 5.1 4.7 10.7 0.5 17.3q-0.1 0-0.1 0.1c-6.5 10.1-15.4 8.9-23 4-7.9-5.1-12.2-13-5.8-22.9 6.9-10.6 15.1-7.8 19.7-4.8 1.8 1.2 1.7 2.6 0.5 4.6l-9.2 14.1c5.9 3.9 11.8 4.9 15.3-0.6 2.2-3.3 1.9-6.8-0.3-10.6zm-15.8 3.9c0.9-1.3 0.8-2-0.7-2.9-2.6-1.7-7.3-4-9.5-0.6-2.3 3.5 1.8 7.7 5.8 10.3z"/><path class="a" d="m-57.2 44.1c1.9 2.1 2.4 2 5.3-0.3l1.7 1.8-13 11.8-1.7-1.9 0.9-1c0.9-1 1.3-1.8-0.2-3.4l-11.4-12.7c-2.8-2.9-5.5-3.3-7.9-1.1-2.1 1.8-2.4 4.2-1.9 6 0.4 1.1 1.3 2.3 2.3 3.4l10.6 11.9c1.5 1.6 2.2 1.4 3.3 0.6l1.1-0.8 1.7 1.8-13.1 11.8-1.6-1.9c2.6-2.7 2.8-3.2 0.9-5.3l-27.5-30.6c-1.8-2-2.6-2.1-3.5-1.5l-2 1.2-1.6-1.8 8.7-10.3h0.6l17.1 19.1c1.3-4.6 2.3-8.2 5.1-10.8 5.1-4.6 10.1-3.7 14.4 1z"/><path fill-rule="evenodd" class="a" d="m-9.2 6c1.5 6.2 0 11.7-6.6 16q0 0-0.1 0.1c-10 6.6-17.6 1.9-22.6-5.7-5.2-7.9-5.9-16.8 4-23.3 10.5-6.9 16.8-1 19.9 3.7 1.2 1.7 0.5 3-1.4 4.3l-14.1 9.2c3.8 5.9 8.8 9.3 14.2 5.7 3.3-2.2 4.5-5.5 4-9.9zm-16-2.8c1.3-0.8 1.5-1.5 0.5-3-1.7-2.6-5.1-6.5-8.4-4.3-3.5 2.3-1.5 7.8 1.1 11.8z"/><path class="a" d="m29-10.7c1.2 2.5 1.7 2.6 5.3 1.1l1.1 2.2-16.5 8.1-1.2-2.2c3.3-1.9 3.7-2.3 2.4-4.8l-18.1-37c-1.2-2.4-1.9-2.8-3-2.5l-2.2 0.7-1.1-2.2 11.2-7.5 0.6 0.2z"/><path class="a" d="m62.2-50l8 22.4c1 2.7 1.6 2.7 6 1.4l0.9 2.3-18.1 6.5-0.9-2.3c3.4-1.5 3.9-1.9 2.9-4.6l-8-22.4-3.9 1.5-1.1-3.1 3.9-1.4-2.8-7.8c-3.1-8.7-0.1-14.9 6.7-17.3 6.8-2.4 10.5 0.3 11.3 2.6 0.8 2.2-1.3 4.6-3.2 5.2-1.5 0.6-2.4 0.1-3.5-0.8-3.1-2.9-4.3-3.9-5.3-3.5-0.7 0.2-1.8 1.4-1.2 3.1q0 0.7 0.3 1.4c0.9 2.6 4.2 6.1 6.7 13.1q0.1 0.3 0.2 0.7l6.4-2.3 1.1 3.1z"/><path fill-rule="evenodd" class="a" d="m129.5-46.7c-0.9 6.3-4.2 10.9-11.9 12.6q0 0-0.1 0c-11.8 2.6-17.2-4.5-19.2-13.3-2-9.2 0.5-17.8 12-20.4 12.4-2.7 16.2 5.1 17.4 10.5 0.4 2.1-0.6 3-2.9 3.5l-16.5 3.7c1.6 6.9 5 11.7 11.3 10.3 3.9-0.8 6.2-3.5 7.3-7.7zm-13.9-8.4c1.5-0.3 1.9-0.8 1.5-2.6-0.7-3-2.5-7.9-6.3-7.1-4.2 0.9-4.2 6.8-3.2 11.5z"/><path class="a" d="m192.5-50.1c0.2 2.8 0.6 3 4.4 3l0.1 2.5-17.5 1.1-0.1-2.5 1.3-0.2c1.4-0.2 2.1-0.6 2-2.8l-1.2-17c-0.4-4.1-2.2-6-5.5-5.8-2.7 0.2-4.5 1.9-5.2 3.6-0.4 1-0.4 2.6-0.3 4.1l1 15.8c0.2 2.2 0.9 2.5 2.2 2.6h1.4l0.2 2.5-17.5 1.2-0.2-2.5c3.7-0.5 4.2-0.8 4-3.6l-1.3-19.7c-0.1-2.6-0.7-3.2-1.8-3.3l-2.3-0.2-0.1-2.4 12.6-2.8 1.3 4.6c4-2.9 7.2-5.1 10.8-5.4 6.7-0.4 10 3.4 10.5 9.7z"/><path fill-rule="evenodd" class="a" d="m255.8-47c-0.3 2.8 0.2 3.1 3.9 3.7l-0.2 2.5-14.1-1.3 0.3-3.3c-3.7 2.5-7.4 3.4-9.8 3.2-8.3-0.7-12.4-7.9-11.6-17.7 0.6-6 2.8-10.3 6.1-13 3.3-2.6 7.7-3.6 12.6-3.2 2.2 0.2 4 0.6 5.3 1.4l1.3-14.2c0.2-2.6-0.2-3.3-1.2-3.6l-2.2-0.6 0.2-2.4 13.3-0.6 0.4 0.4zm-8.2-19c0.2-1.4 0.3-2.9-0.1-4-0.5-1.4-1.7-2.9-4.2-3.1-3.6-0.3-7.6 3-8.5 12.8-0.7 8.5 1.8 13 6 13.4 4.2 0.4 5.4-2.7 5.6-5.4z"/><path fill-rule="evenodd" class="a" d="m316.6-37.8c-3.5 5.2-8.6 7.9-16.2 6.1q-0.1-0.1-0.1-0.1c-11.7-2.8-13.4-11.6-11.3-20.4 2.2-9.2 8.3-15.7 19.8-12.9 12.2 3 12.2 11.6 10.9 17-0.5 2.1-1.9 2.5-4.2 1.9l-16.3-4c-1.7 6.9-0.8 12.7 5.5 14.3 3.9 0.9 7.1-0.5 10-3.8zm-8.8-13.6c1.4 0.3 2.1 0.1 2.5-1.7 0.7-3 1.3-8.2-2.5-9.1-4.2-1-6.8 4.2-7.9 8.8z"/><path class="a" d="m374.6-13c-1 2.6-0.7 3 2.7 4.6l-1 2.4-16.2-6.8 0.9-2.3 1.4 0.4c1.3 0.4 2.1 0.4 2.9-1.6l6.6-15.8c1.4-3.8 0.6-6.3-2.5-7.6-2.5-1.1-4.8-0.3-6.2 0.9-0.8 0.8-1.5 2.1-2.1 3.5l-6.1 14.7c-0.8 2-0.3 2.6 0.9 3.2l1.2 0.7-1 2.3-16.2-6.7 1-2.3c3.5 1.2 4.1 1.2 5.2-1.4l7.5-18.3c1-2.4 0.8-3.2-0.1-3.7l-2-1.3 0.9-2.1 12.6 3.1-0.9 4.6c4.9-0.8 8.8-1.4 12.1 0 6.2 2.5 7.5 7.4 5.2 13.3z"/><path class="a" d="m478 31.4l-13.4-10.8-10.8 13.4c-2.3 2.9-2.1 3.4 1.4 6.5l-1.7 2.1-16.1-13 1.6-2.1c3.8 2.7 4.4 2.8 6.7 0l22.1-27.4c2.2-2.8 2-3.4-1.4-6.5l1.6-2.1 16.2 13-1.7 2.1c-3.7-2.7-4.4-2.7-6.6 0l-9.2 11.4 13.4 10.8 9.2-11.3c2.2-2.8 2.1-3.5-1.4-6.5l1.7-2.1 16.1 13-1.6 2.1c-3.8-2.7-4.4-2.8-6.7 0l-22.1 27.4c-2.3 2.8-2 3.4 1.4 6.5l-1.6 2.1-16.2-13.1 1.7-2c3.7 2.7 4.3 2.8 6.6 0z"/><path fill-rule="evenodd" class="a" d="m516.7 102.7c-2.1-1-5.6-3.4-7.9-5.9-2.1-2.4-1.5-4.3-0.5-6.3-2.7-0.7-6.3-1.4-9.1-4.5-4.4-4.9-3.2-10.4 0.6-13.8 2.9-2.5 6.1-3 10.9-0.4 4 2.2 8.8 5.1 11.6 5.8l2.6-2.4c2.9-2.6 2.5-4.8 1.2-6.2-1.2-1.3-3.3-2.2-8.8 0.3-1.6 0.6-2.9 0.8-3.9-0.2-1.1-1.3-3-5.2-0.7-7.2 3.2-2.9 10.1-1.2 16.5 6 7.7 8.6 4.3 12.6 1.1 15.4l-11.5 10.3c-3 2.7-2.8 4.1-2.4 4.9 0.3 0.7 0.9 1.5 1.4 2.1q0.2 0.2 0.4 0.4zm3.1-22.9c-1.5-0.7-3.8-1.8-6-2.5-2.2-0.7-4-0.5-6.4 1.7-2.6 2.3-2.7 5.4-0.9 7.3 1.1 1.3 3.2 2.3 6.1 0zm8.5-27.7c2-1.8 5.1-2.2 7.4 0.3 2.3 2.6 1.4 5.7-0.5 7.4-2 1.8-5.1 2.2-7.4-0.3-2.2-2.5-1.5-5.6 0.5-7.4zm10.4 11.8c2-1.8 5.2-2.2 7.5 0.3 2.2 2.5 1.4 5.6-0.6 7.4-2 1.7-5.1 2.1-7.3-0.4-2.3-2.5-1.5-5.6 0.4-7.3z"/><path class="a" d="m554.9 149.4c-2.3 1.5-2.3 2-0.4 5.3l-2.1 1.4-9.6-14.8 2.1-1.3 0.9 1c0.9 1.1 1.5 1.6 3.4 0.4l14.3-9.3c3.3-2.4 4.1-4.9 2.3-7.7-1.5-2.3-3.8-2.9-5.7-2.7-1.1 0.1-2.4 0.8-3.7 1.6l-13.3 8.7c-1.9 1.2-1.7 1.9-1.1 3.2l0.6 1.2-2.1 1.4-9.6-14.8 2.1-1.3c2.3 3 2.7 3.3 5.1 1.8l16.6-10.8c2.2-1.5 2.4-2.2 2-3.2l-1-2.1 2-1.3 8.7 9.7-3.4 3.3c4.5 2.1 8 3.8 10 6.8 3.6 5.6 1.9 10.4-3.3 13.9z"/><path fill-rule="evenodd" class="a" d="m583 206.2c-2.6 1.1-2.6 1.7-1.3 5.2l-2.3 1-5.7-12.9 3-1.4c-4-2-6.6-4.8-7.5-6.9-3.4-7.7 0.8-14.8 9.8-18.8 5.5-2.4 10.4-2.6 14.3-1 3.9 1.6 6.9 5 8.9 9.4 0.9 2 1.5 3.8 1.4 5.4l13-5.8c2.4-1.1 2.8-1.8 2.6-2.8l-0.6-2.2 2.2-1 7.1 11.3-0.2 0.6zm12.6-16.4c1.3-0.6 2.7-1.2 3.5-2.1 1-1.1 1.6-2.9 0.6-5.1-1.5-3.4-6.3-5.2-15.3-1.3-7.8 3.5-10.5 7.9-8.8 11.8 1.7 3.8 5 3.3 7.4 2.3z"/><path fill-rule="evenodd" class="a" d="m604.5 263.8c-6.3-0.5-11.1-3.6-13.1-11.2q-0.1-0.1-0.1-0.1c-3.2-11.6 3.7-17.4 12.4-19.8 9.1-2.5 17.8-0.4 20.9 11 3.3 12.2-4.3 16.4-9.6 17.8-2.1 0.6-3-0.4-3.7-2.7l-4.4-16.2c-6.8 1.8-11.5 5.5-9.8 11.8 1.1 3.8 3.9 5.9 8.1 6.8zm7.7-14.3c0.4 1.5 0.9 1.9 2.7 1.4 3-0.8 7.8-2.8 6.7-6.7-1.1-4.1-6.9-3.8-11.6-2.5z"/><path class="a" d="m-33.3 541.5h-13v12.9c0 2.8 0.4 3 3.9 3.2v2h-15.6v-2c3.5-0.2 3.9-0.4 3.9-3.2v-26.4c0-2.7-0.4-3-3.9-3.1v-2h15.6v2c-3.5 0.1-3.9 0.4-3.9 3.1v11h13v-11c0-2.7-0.4-3-3.9-3.1v-2h15.6v2c-3.5 0.1-3.9 0.4-3.9 3.1v26.4c0 2.8 0.4 3 3.9 3.2v2h-15.6v-2c3.5-0.2 3.9-0.4 3.9-3.2z"/><path fill-rule="evenodd" class="a" d="m17.7 558.7c-1.6 0.6-4.8 1.4-7.3 1.4-2.4 0-3.2-1.2-3.8-2.8-1.7 1.1-3.9 2.8-7 2.8-5 0-7.5-3.4-7.5-7.2 0-2.9 1.4-4.9 5.2-6.3 3.2-1.1 7.3-2.4 9.1-3.6v-2.7c0-2.9-1.5-3.7-2.9-3.7-1.4 0-2.9 0.8-4.3 5-0.4 1.2-0.9 2.1-2 2.1-1.3 0-4.4-0.9-4.4-3.2 0-3.3 4.4-6.2 11.6-6.2 8.7 0 9.2 3.9 9.2 7.1v11.6c0 3 0.9 3.6 1.6 3.8 0.5 0.1 1.2 0.2 1.8 0.2q0.3 0 0.5 0zm-11.3-13.2c-1.1 0.5-2.9 1.3-4.4 2.1-1.5 0.9-2.3 2-2.3 4.4 0 2.7 1.7 4.2 3.7 4.2 1.3 0 2.9-0.6 3-3.4z"/><path class="a" d="m49 556.8c-1.9 1.1-4.5 3.3-8.7 3.3-3.5 0-7.1-1.6-7.1-7.5v-12.2c0-2-0.4-2.5-1.2-2.6l-1.7-0.3v-1.7l10-1.5 0.3 0.3v16.1c0 4 1.6 5.5 4.1 5.5 2.2 0 3.5-1.2 3.9-2.4 0.3-0.7 0.4-1.9 0.4-2.8v-10.6c0-2-0.4-2.5-1.2-2.6l-1.7-0.3v-1.7l10-1.5 0.3 0.3v20.6c0 2.1 0.4 2.3 3.2 2.5v1.9h-10.2z"/><path class="a" d="m73.9 550.3h1.8c1.3 4.1 3.9 7.6 7.2 7.6 2.1 0 3.3-1.2 3.3-3.1 0-2.4-2.4-3.9-4.9-4.8-4.3-1.7-7.2-4.1-7.2-7.7 0-5.1 3.8-8 9.7-8 2.6 0 5.4 0.5 7.4 1.7v6.8h-1.8c-0.9-3.9-3-6.2-5.6-6.2-2 0-3 1.4-3 2.9 0 2.1 2.1 3.3 4.9 4.3 4.5 1.8 7.2 3.8 7.2 8.2 0 5.5-4.1 8.1-10.1 8.1-2.8 0-6.5-0.5-8.3-2.3z"/><path class="a" d="m133.1 555.2c0 2.1 0.4 2.3 3.2 2.5v1.9h-13.2v-1.9l1-0.1c1-0.1 1.6-0.4 1.6-2v-12.8c-0.1-3.1-1.4-4.6-3.9-4.6-2 0-3.4 1.2-4 2.4-0.4 0.8-0.5 1.9-0.5 3v12c0 1.6 0.5 1.9 1.5 2l1.1 0.1v1.9h-13.2v-1.9c2.8-0.2 3.2-0.4 3.2-2.5v-30.9c0-2-0.4-2.5-1.2-2.6l-1.7-0.3v-1.9l10-1.3 0.3 0.3v19.3c3-2 5.4-3.5 8.3-3.5 5.1 0 7.5 3 7.5 7.7z"/><path fill-rule="evenodd" class="a" d="m175.4 558.7c-1.6 0.6-4.8 1.4-7.3 1.4-2.4 0-3.2-1.2-3.8-2.8-1.7 1.1-3.9 2.8-7 2.8-5 0-7.4-3.4-7.4-7.2 0-2.9 1.3-4.9 5.2-6.3 3.1-1.1 7.3-2.4 9-3.6v-2.7c0-2.9-1.5-3.7-2.9-3.7-1.4 0-2.9 0.8-4.3 5-0.4 1.2-0.9 2.1-2 2.1-1.3 0-4.4-0.9-4.4-3.2 0-3.3 4.4-6.2 11.6-6.2 8.7 0 9.2 3.9 9.2 7.1v11.6c0 3 0.9 3.6 1.6 3.8 0.5 0.1 1.2 0.2 1.8 0.2q0.3 0 0.5 0zm-11.3-13.2c-1.1 0.5-2.9 1.3-4.4 2.1-1.5 0.9-2.3 2-2.3 4.4 0 2.7 1.7 4.2 3.7 4.2 1.3 0 2.9-0.6 3-3.4z"/><path class="a" d="m198.4 555.2c0 2.1 0.4 2.3 3.2 2.5v1.9h-13.8v-1.9c2.8-0.2 3.2-0.4 3.2-2.5v-30.9c0-2-0.4-2.5-1.2-2.6l-1.7-0.3v-1.9l10-1.3 0.3 0.3z"/><path class="a" d="m224.9 537.4v14.3c0 3.3 1.2 4.7 3.1 4.7 1.1 0 2.1-0.2 2.8-0.5l0.5 1.6c-2.7 1.7-5.7 2.6-7.7 2.6-2.8 0-6.1-1.8-6.1-6.4v-16.3h-2.9v-2.5h3.1c2.3-2.2 3.7-5.2 4.3-9.6h2.9v9.6h5.1v2.5z"/><path class="a" d="m245.3 550.3h1.9c1.3 4.1 3.9 7.6 7.1 7.6 2.2 0 3.4-1.2 3.4-3.1 0-2.4-2.4-3.9-4.9-4.8-4.3-1.7-7.2-4.1-7.2-7.7 0-5.1 3.7-8 9.7-8 2.5 0 5.4 0.5 7.4 1.7v6.8h-1.8c-1-3.9-3.1-6.2-5.6-6.2-2 0-3.1 1.4-3.1 2.9 0 2.1 2.1 3.3 4.9 4.3 4.6 1.8 7.2 3.8 7.2 8.2 0 5.5-4.1 8.1-10.1 8.1-2.7 0-6.4-0.5-8.2-2.3z"/><path class="a" d="m304.6 555.2c0 2.1 0.3 2.3 3.1 2.5v1.9h-13.2v-1.9l1.1-0.1c1-0.1 1.6-0.4 1.6-2v-12.8c-0.1-3.1-1.4-4.6-3.9-4.6-2.1 0-3.4 1.2-4.1 2.4-0.3 0.8-0.4 1.9-0.4 3v12c0 1.6 0.5 1.9 1.5 2l1 0.1v1.9h-13.1v-1.9c2.8-0.2 3.2-0.4 3.2-2.5v-30.9c0-2-0.4-2.5-1.2-2.6l-1.8-0.3v-1.9l10-1.3 0.4 0.3v19.3c3-2 5.4-3.5 8.3-3.5 5.1 0 7.4 3 7.5 7.7z"/><path class="a" d="m323.9 540.4c0-2-0.4-2.5-1.2-2.6l-1.7-0.3v-1.7l10-1.5 0.3 0.3v20.6c0 2.1 0.4 2.3 3.2 2.5v1.9h-13.8v-1.9c2.8-0.2 3.2-0.4 3.2-2.5zm-1-12.7c0-2.3 1.7-4.4 4.4-4.4 2.8 0 4.5 2.1 4.5 4.4 0 2.4-1.8 4.4-4.5 4.4-2.7 0-4.4-2-4.4-4.4z"/><path class="a" d="m357.8 555.2c0 2.1 0.3 2.3 3.2 2.5v1.9h-13.9v-1.9c2.8-0.2 3.2-0.4 3.2-2.5v-30.9c0-2-0.4-2.5-1.2-2.6l-1.7-0.3v-1.9l10-1.3 0.4 0.3z"/><path class="a" d="m384.8 537.4v17.8c0 2.1 0.4 2.3 3.8 2.5v1.9h-14.4v-1.9c2.8-0.2 3.2-0.4 3.2-2.5v-17.8h-3.1v-2.5h3.1v-6.2c0-6.9 3.7-10.5 9.1-10.5 5.5 0 7.3 2.8 7.3 4.7 0 1.7-2 2.9-3.6 2.9-1.2 0-1.7-0.6-2.2-1.5-1.5-2.9-2-3.8-2.8-3.8-0.6 0-1.7 0.5-1.7 1.8q-0.2 0.5-0.2 1.1c0 2.1 1.5 5.4 1.5 11q0 0.2 0 0.5h5v2.5z"/><path fill-rule="evenodd" class="a" d="m425 552.8c-1.6 4.5-4.8 7.3-10.7 7.3q-0.1 0-0.1 0c-9.1 0-11.9-6-11.9-12.9 0-7 3.3-12.9 12.1-12.9 9.5 0 11 6.3 11 10.5 0 1.6-0.9 2.1-2.7 2.1h-12.6c0 5.3 1.7 9.4 6.6 9.4 3 0 5.1-1.6 6.6-4.5zm-8.9-8.4c1.1 0 1.5-0.3 1.5-1.6 0-2.4-0.5-6.3-3.4-6.3-3.2 0-4.2 4.3-4.2 7.9z"/><path class="a" d="m-145.8 607.4v17.8c0 2.1 0.4 2.3 3.8 2.5v1.9h-14.4v-1.9c2.8-0.2 3.2-0.4 3.2-2.5v-17.8h-3.1v-2.5h3.1v-6.2c0-6.9 3.7-10.5 9.1-10.5 5.5 0 7.3 2.8 7.3 4.7 0 1.7-2 2.9-3.6 2.9-1.2 0-1.7-0.6-2.2-1.5-1.5-2.9-2-3.8-2.8-3.8-0.6 0-1.7 0.5-1.7 1.8q-0.2 0.5-0.2 1.1c0 2.1 1.5 5.4 1.5 11q0 0.2 0 0.5h5v2.5z"/><path fill-rule="evenodd" class="a" d="m-102.4 628.7c-1.6 0.6-4.7 1.4-7.2 1.4-2.4 0-3.2-1.2-3.9-2.8-1.7 1.1-3.8 2.8-7 2.8-5 0-7.4-3.4-7.4-7.2 0-2.9 1.3-4.9 5.2-6.3 3.2-1.1 7.3-2.4 9-3.6v-2.7c0-2.9-1.4-3.7-2.8-3.7-1.4 0-3 0.8-4.3 5-0.4 1.2-1 2.1-2.1 2.1-1.2 0-4.4-0.9-4.4-3.2 0-3.3 4.4-6.2 11.7-6.2 8.6 0 9.2 3.9 9.2 7.1v11.6c0 3 0.9 3.6 1.5 3.8 0.6 0.1 1.3 0.2 1.9 0.2q0.2 0 0.4 0zm-11.3-13.2c-1.1 0.5-2.9 1.3-4.4 2.1-1.4 0.9-2.2 2-2.2 4.4 0 2.7 1.7 4.2 3.6 4.2 1.3 0 2.9-0.6 3-3.4z"/><path class="a" d="m-78.9 625.6c0 1.6 0.6 1.9 1.6 2l1 0.1v1.9h-13.2v-1.9c2.8-0.2 3.2-0.4 3.2-2.5v-14.8c0-2-0.4-2.5-1.2-2.6l-1.7-0.3v-1.7l9.7-1.5 0.6 3.5c2.7-1.8 5-3.5 8.1-3.5 3.8 0 5.8 2 6.7 3.7 2.1-1.3 5.2-3.7 8.6-3.7 5.2 0 7.6 3 7.6 7.8v13.1c0 2.1 0.4 2.3 3.2 2.5v1.9h-13.1v-1.9l1-0.1c1-0.1 1.5-0.4 1.5-2v-12.6c0-3.1-1.4-4.8-3.7-4.8q0 0-0.1 0c-1.8 0-3.4 1.1-4.1 3.5-0.1 0.6-0.2 1.7-0.2 2.5v11.4c0 1.6 0.6 1.9 1.6 2l1 0.1v1.9h-12.6v-1.9l1-0.1c1.1-0.1 1.6-0.4 1.6-2v-12.6c0-2.8-1.1-4.8-3.5-4.8-2 0-3.8 1.2-4.4 3.6-0.2 0.6-0.2 1.6-0.2 2.4z"/><path class="a" d="m-28.5 610.4c0-2-0.4-2.5-1.2-2.6l-1.7-0.3v-1.7l10-1.5 0.3 0.3v20.6c0 2.1 0.4 2.3 3.2 2.5v1.9h-13.8v-1.9c2.8-0.2 3.2-0.4 3.2-2.5zm-1-12.7c0-2.3 1.7-4.4 4.4-4.4 2.8 0 4.5 2.1 4.5 4.4 0 2.4-1.8 4.4-4.5 4.4-2.7 0-4.4-2-4.4-4.4z"/><path class="a" d="m5.4 625.2c0 2.1 0.3 2.3 3.2 2.5v1.9h-13.9v-1.9c2.8-0.2 3.2-0.4 3.2-2.5v-30.9c0-2-0.4-2.5-1.2-2.6l-1.7-0.3v-1.9l10-1.3 0.4 0.3z"/><path class="a" d="m24.8 610.4c0-2-0.4-2.5-1.2-2.6l-1.7-0.3v-1.7l10-1.5 0.4 0.3v20.6c0 2.1 0.4 2.3 3.2 2.5v1.9h-13.9v-1.9c2.8-0.2 3.2-0.4 3.2-2.5zm-1-12.7c0-2.3 1.7-4.4 4.5-4.4 2.8 0 4.5 2.1 4.5 4.4 0 2.4-1.9 4.4-4.5 4.4-2.8 0-4.5-2-4.5-4.4z"/><path fill-rule="evenodd" class="a" d="m74.7 628.7c-1.6 0.6-4.8 1.4-7.3 1.4-2.4 0-3.2-1.2-3.8-2.8-1.7 1.1-3.9 2.8-7 2.8-5 0-7.4-3.4-7.4-7.2 0-2.9 1.3-4.9 5.2-6.3 3.2-1.1 7.3-2.4 9-3.6v-2.7c0-2.9-1.4-3.7-2.9-3.7-1.3 0-2.9 0.8-4.3 5-0.4 1.2-0.9 2.1-2 2.1-1.3 0-4.4-0.9-4.4-3.2 0-3.3 4.4-6.2 11.6-6.2 8.7 0 9.2 3.9 9.2 7.1v11.6c0 3 0.9 3.6 1.6 3.8 0.5 0.1 1.2 0.2 1.8 0.2q0.3 0 0.5 0zm-22.5-31.8c0-2 1.3-4 3.8-4 2.6 0 3.9 2 3.9 4 0 2-1.3 3.9-3.9 3.9-2.5 0-3.8-1.9-3.8-3.9zm11.2 18.6c-1.1 0.5-2.9 1.3-4.4 2.1-1.5 0.9-2.3 2-2.3 4.4 0 2.7 1.7 4.2 3.7 4.2 1.3 0 2.9-0.6 3-3.4zm0.6-18.6c0-2 1.3-4 3.9-4 2.5 0 3.8 2 3.8 4 0 2-1.3 3.9-3.8 3.9-2.6 0-3.9-1.9-3.9-3.9z"/><path class="a" d="m98.2 625.2c0 2.1 0.4 2.3 4.2 2.5v1.9h-14.8v-1.9c2.8-0.2 3.2-0.4 3.2-2.5v-14.8c0-2-0.4-2.5-1.2-2.6l-1.7-0.3v-1.7l9.6-1.5 0.5 4.4c2.9-3.1 4.5-4.4 6.5-4.4 2.2 0 3.5 1.3 3.5 3.5 0 1.1-0.3 2.1-0.8 2.9-0.5 0.8-1.5 1.3-2.5 1.3-0.9 0-1.6-0.4-2.3-0.8-1-0.6-1.7-1-2.5-1-1.2 0-1.7 1.1-1.7 3.7z"/><path class="a" d="m165.1 613.8v5h-13v-5z"/><path class="a" d="m220.3 607.4v17.8c0 2.1 0.4 2.3 3.9 2.5v1.9h-14.5v-1.9c2.8-0.2 3.2-0.4 3.2-2.5v-17.8h-3.1v-2.5h3.1v-6.2c0-6.9 3.7-10.5 9.2-10.5 5.4 0 7.3 2.8 7.3 4.7 0 1.7-2.1 2.9-3.6 2.9-1.2 0-1.7-0.6-2.3-1.5-1.4-2.9-2-3.8-2.8-3.8-0.6 0-1.7 0.5-1.7 1.8q-0.2 0.5-0.2 1.1c0 2.1 1.5 5.4 1.5 11q0 0.2 0 0.5h5.1v2.5z"/><path class="a" d="m249.5 625.2c0 2.1 0.4 2.3 4.3 2.5v1.9h-14.9v-1.9c2.8-0.2 3.2-0.4 3.2-2.5v-14.8c0-2-0.4-2.5-1.2-2.6l-1.7-0.3v-1.7l9.6-1.5 0.6 4.4c2.8-3.1 4.4-4.4 6.5-4.4 2.1 0 3.4 1.3 3.4 3.5 0 1.1-0.2 2.1-0.8 2.9-0.5 0.8-1.5 1.3-2.5 1.3-0.9 0-1.6-0.4-2.2-0.8-1.1-0.6-1.8-1-2.6-1-1.2 0-1.7 1.1-1.7 3.7z"/><path fill-rule="evenodd" class="a" d="m294.9 622.8c-1.7 4.5-4.9 7.3-10.8 7.3q0 0-0.1 0c-9 0-11.9-6-11.9-12.9 0-7 3.3-12.9 12.1-12.9 9.5 0 11.1 6.3 11.1 10.5 0 1.6-0.9 2.1-2.7 2.1h-12.7c0 5.3 1.7 9.4 6.6 9.4 3 0 5.1-1.6 6.6-4.5zm-8.9-8.4c1.2 0 1.6-0.3 1.6-1.6 0-2.4-0.5-6.3-3.5-6.3-3.2 0-4.2 4.3-4.2 7.9z"/><path class="a" d="m327.7 626.8c-1.9 1.1-4.5 3.3-8.7 3.3-3.5 0-7.1-1.6-7.1-7.5v-12.2c0-2-0.4-2.5-1.2-2.6l-1.7-0.3v-1.7l10-1.5 0.3 0.3v16.1c0 4 1.5 5.5 4.1 5.5 2.2 0 3.4-1.2 3.9-2.4 0.3-0.7 0.4-1.9 0.4-2.8v-10.6c0-2-0.4-2.5-1.2-2.6l-1.7-0.3v-1.7l10-1.5 0.3 0.3v20.6c0 2.1 0.4 2.3 3.2 2.5v1.9h-10.2z"/><path class="a" d="m377.8 625.2c0 2.1 0.4 2.3 3.2 2.5v1.9h-13.2v-1.9l1-0.1c1-0.1 1.6-0.4 1.6-2v-12.8c-0.1-3.1-1.4-4.6-3.9-4.6-2 0-3.4 1.2-4 2.4-0.4 0.8-0.5 1.9-0.5 3v12c0 1.6 0.5 1.9 1.6 2l1 0.1v1.9h-13.2v-1.9c2.8-0.2 3.2-0.4 3.2-2.5v-14.8c0-2-0.4-2.5-1.2-2.6l-1.7-0.3v-1.7l9.6-1.5 0.7 3.5c3.2-2 5.7-3.5 8.4-3.5 5 0 7.4 3 7.4 7.7z"/><path fill-rule="evenodd" class="a" d="m419.2 625.2c0 2.1 0.4 2.3 3.2 2.5v1.9h-10.7v-2.5c-2.6 2.1-5.3 3-7 3-6.3 0-9.9-5-9.9-12.4 0-4.6 1.4-7.9 3.6-10.2 2.3-2.1 5.6-3.2 9.2-3.2 1.7 0 3.1 0.1 4.1 0.7v-10.7c0-2-0.4-2.5-1.1-2.6l-1.7-0.3v-1.9l9.9-1.3 0.4 0.3zm-7.5-13.7c0-1.1 0-2.2-0.4-3-0.4-1-1.4-2-3.3-2-2.7 0-5.4 2.7-5.4 10.1 0 6.5 2.1 9.6 5.3 9.6 3.2 0 3.8-2.4 3.8-4.3z"/><path class="a" d="m445.6 625.2c0 2.1 0.4 2.3 3.2 2.5v1.9h-13.8v-1.9c2.8-0.2 3.2-0.4 3.2-2.5v-30.9c0-2-0.4-2.5-1.2-2.6l-1.7-0.3v-1.9l10-1.3 0.3 0.3z"/><path class="a" d="m465.1 610.4c0-2-0.4-2.5-1.2-2.6l-1.7-0.3v-1.7l10-1.5 0.3 0.3v20.6c0 2.1 0.4 2.3 3.2 2.5v1.9h-13.8v-1.9c2.8-0.2 3.2-0.4 3.2-2.5zm-1-12.7c0-2.3 1.7-4.4 4.4-4.4 2.8 0 4.5 2.1 4.5 4.4 0 2.4-1.8 4.4-4.5 4.4-2.7 0-4.4-2-4.4-4.4z"/><path class="a" d="m511.7 622.5c-1.9 6.3-6.5 7.6-10.5 7.6-6.9 0-11.6-4.2-11.6-12.7 0-4.4 1.3-7.6 3.3-9.8 2.3-2.2 5.3-3.3 9.1-3.3 4.5 0 9.4 2 9.4 5.5 0 2.2-2.4 3.2-4.1 3.2-1.2 0-2-0.7-2.3-1.8-0.9-3-1.7-4.6-3.4-4.6-2.1 0-4.2 2.9-4.2 9.6 0 7.9 3.1 10.1 6.3 10.1 2.7 0 4.6-1.1 6.3-4.6z"/><path class="a" d="m551.3 625.2c0 2.1 0.3 2.3 3.1 2.5v1.9h-13.1v-1.9l1-0.1c1-0.1 1.6-0.4 1.6-2v-12.8c-0.1-3.1-1.4-4.6-3.9-4.6-2.1 0-3.4 1.2-4.1 2.4-0.3 0.8-0.4 1.9-0.4 3v12c0 1.6 0.5 1.9 1.5 2l1.1 0.1v1.9h-13.2v-1.9c2.8-0.2 3.2-0.4 3.2-2.5v-30.9c0-2-0.4-2.5-1.2-2.6l-1.8-0.3v-1.9l10-1.3 0.4 0.3v19.3c3-2 5.4-3.5 8.3-3.5 5.1 0 7.4 3 7.5 7.7z"/><path fill-rule="evenodd" class="a" d="m35.5 692.8c-1.6 4.5-4.8 7.3-10.7 7.3q-0.1 0-0.1 0c-9.1 0-11.9-6-11.9-12.9 0-7 3.3-12.9 12.1-12.9 9.5 0 11 6.3 11 10.5 0 1.6-0.9 2.1-2.6 2.1h-12.7c0 5.3 1.7 9.4 6.6 9.4 3 0 5.1-1.6 6.6-4.5zm-8.9-8.4c1.2 0 1.6-0.3 1.6-1.6 0-2.4-0.6-6.3-3.5-6.3-3.2 0-4.2 4.3-4.2 7.9z"/><path class="a" d="m60.6 695.6c0 1.6 0.5 1.9 1.5 2l1 0.1v1.9h-13.2v-1.9c2.8-0.2 3.2-0.4 3.2-2.5v-14.8c0-2-0.4-2.5-1.2-2.6l-1.7-0.3v-1.7l9.7-1.5 0.7 3.5c2.6-1.8 4.9-3.5 8.1-3.5 3.7 0 5.7 2 6.6 3.7 2.2-1.3 5.2-3.7 8.6-3.7 5.2 0 7.6 3 7.7 7.8v13.1c0 2.1 0.4 2.3 3.2 2.5v1.9h-13.2v-1.9l1-0.1c1-0.1 1.5-0.4 1.5-2v-12.6c0-3.1-1.4-4.8-3.7-4.8q0 0-0.1 0c-1.8 0-3.4 1.1-4 3.5-0.2 0.6-0.3 1.7-0.3 2.5v11.4c0 1.6 0.6 1.9 1.6 2l1 0.1v1.9h-12.6v-1.9l1.1-0.1c1-0.1 1.6-0.4 1.6-2v-12.6c-0.1-2.8-1.2-4.8-3.6-4.8-2 0-3.8 1.2-4.4 3.6-0.1 0.6-0.1 1.6-0.1 2.4z"/><path fill-rule="evenodd" class="a" d="m117.9 708c0 2.2 0.4 2.4 4 2.5v1.9h-14.6v-1.9c2.8-0.1 3.2-0.3 3.2-2.5v-27.6c0-2-0.4-2.5-1.2-2.6l-1.8-0.3v-1.7l9.5-1.5 0.9 3.5c2.4-1.9 4.6-3.5 8.1-3.5 4.6 0 8.8 3.9 8.8 12.3 0 11-5.8 13.5-13 13.5-1.4 0-3.1-0.2-3.9-0.5zm0-16.1c0 0.9 0 1.8 0.2 2.6 0.4 2.2 1.7 3.4 3.8 3.4 3.8 0 5.1-4.1 5.1-10.3 0-8.2-2.6-9.5-4.9-9.5-2 0-3.2 1.2-3.9 3-0.3 0.7-0.3 1.7-0.3 2.8z"/><path fill-rule="evenodd" class="a" d="m175.5 698.7c-1.6 0.6-4.7 1.4-7.3 1.4-2.4 0-3.2-1.2-3.8-2.8-1.7 1.1-3.9 2.8-7 2.8-5 0-7.4-3.4-7.4-7.2 0-2.9 1.3-4.9 5.2-6.3 3.2-1.1 7.3-2.4 9-3.6v-2.7c0-2.9-1.4-3.7-2.9-3.7-1.3 0-2.9 0.8-4.2 5-0.5 1.2-1 2.1-2.1 2.1-1.3 0-4.4-0.9-4.4-3.2 0-3.3 4.4-6.2 11.6-6.2 8.7 0 9.2 3.9 9.2 7.1v11.6c0 3 1 3.6 1.6 3.8 0.5 0.1 1.2 0.2 1.8 0.2q0.3 0 0.5 0zm-11.3-13.2c-1.1 0.5-2.9 1.3-4.4 2.1-1.5 0.9-2.3 2-2.3 4.4 0 2.7 1.8 4.2 3.7 4.2 1.3 0 2.9-0.6 3-3.4z"/><path class="a" d="m197.5 677.4v14.3c0 3.3 1.3 4.7 3.2 4.7 1.1 0 2.1-0.2 2.8-0.5l0.5 1.6c-2.8 1.7-5.8 2.6-7.8 2.6-2.8 0-6.1-1.8-6.1-6.4v-16.3h-2.8v-2.5h3c2.4-2.2 3.8-5.2 4.4-9.6h2.8v9.6h5.1v2.5z"/><path class="a" d="m242.8 695.2c0 2.1 0.4 2.3 3.2 2.5v1.9h-13.2v-1.9l1-0.1c1-0.1 1.6-0.4 1.6-2v-12.8c-0.1-3.1-1.4-4.6-3.9-4.6-2 0-3.4 1.2-4 2.4-0.4 0.8-0.5 1.9-0.5 3v12c0 1.6 0.5 1.9 1.5 2l1.1 0.1v1.9h-13.2v-1.9c2.8-0.2 3.2-0.4 3.2-2.5v-30.9c0-2-0.4-2.5-1.2-2.6l-1.7-0.3v-1.9l10-1.3 0.3 0.3v19.3c3-2 5.4-3.5 8.3-3.5 5.1 0 7.5 3 7.5 7.7z"/><path class="a" d="m262.1 680.4c0-2-0.4-2.5-1.2-2.6l-1.7-0.3v-1.7l10-1.5 0.3 0.3v20.6c0 2.1 0.4 2.3 3.2 2.5v1.9h-13.8v-1.9c2.8-0.2 3.2-0.4 3.2-2.5zm-1-12.7c0-2.3 1.7-4.4 4.4-4.4 2.8 0 4.6 2.1 4.6 4.4 0 2.4-1.9 4.4-4.6 4.4-2.7 0-4.4-2-4.4-4.4z"/><path class="a" d="m287 690.3h1.8c1.3 4.1 3.9 7.6 7.2 7.6 2.1 0 3.3-1.2 3.3-3.1 0-2.4-2.4-3.9-4.9-4.8-4.3-1.7-7.2-4.1-7.2-7.7 0-5.1 3.8-8 9.7-8 2.6 0 5.4 0.5 7.4 1.7v6.8h-1.8c-0.9-3.9-3-6.2-5.6-6.2-2 0-3 1.4-3 2.9 0 2.1 2.1 3.3 4.9 4.3 4.5 1.8 7.2 3.8 7.2 8.2 0 5.5-4.1 8.1-10.1 8.1-2.8 0-6.5-0.5-8.3-2.3z"/><path class="a" d="m343.2 692.5c-1.9 6.3-6.5 7.6-10.6 7.6-6.9 0-11.5-4.2-11.5-12.7 0-4.4 1.3-7.6 3.3-9.8 2.2-2.2 5.3-3.3 9.1-3.3 4.5 0 9.4 2 9.4 5.5 0 2.2-2.4 3.2-4.1 3.2-1.3 0-2-0.7-2.3-1.8-0.9-3-1.7-4.6-3.4-4.6-2.1 0-4.2 2.9-4.2 9.6 0 7.9 3.1 10.1 6.3 10.1 2.7 0 4.6-1.1 6.3-4.6z"/><path class="a" d="m382.8 695.2c0 2.1 0.3 2.3 3.1 2.5v1.9h-13.2v-1.9l1-0.1c1.1-0.1 1.6-0.4 1.6-2v-12.8c-0.1-3.1-1.3-4.6-3.8-4.6-2.1 0-3.5 1.2-4.1 2.4-0.3 0.8-0.4 1.9-0.4 3v12c0 1.6 0.5 1.9 1.5 2l1 0.1v1.9h-13.2v-1.9c2.8-0.2 3.2-0.4 3.2-2.5v-30.9c0-2-0.4-2.5-1.2-2.6l-1.7-0.3v-1.9l10-1.3 0.4 0.3v19.3c3-2 5.4-3.5 8.2-3.5 5.2 0 7.5 3 7.6 7.7z"/></svg>